<mxfile host="app.diagrams.net" modified="2023-07-03T13:00:46.217Z" agent="Mozilla/5.0 (Macintosh; Intel Mac OS X 10.15; rv:102.0) Gecko/20100101 Firefox/102.0" etag="_1uxEVh3_X4Jbr6RtTg_" version="21.5.2" type="github">
  <diagram name="Página-1" id="TcPMoGSx8ZJz2rr5X1lu">
    <mxGraphModel dx="1093" dy="703" grid="1" gridSize="10" guides="1" tooltips="1" connect="1" arrows="1" fold="1" page="1" pageScale="1" pageWidth="850" pageHeight="1100" math="0" shadow="0">
      <root>
        <mxCell id="0" />
        <mxCell id="1" parent="0" />
        <mxCell id="HqyEcuFVQdqJihXE6mJL-1" value="Neonatología" style="text;strokeColor=none;fillColor=none;html=1;fontSize=24;fontStyle=1;verticalAlign=middle;align=left;fontColor=#FF0000;" vertex="1" parent="1">
          <mxGeometry x="40" y="40" width="100" height="40" as="geometry" />
        </mxCell>
        <mxCell id="HqyEcuFVQdqJihXE6mJL-4" value="" style="edgeStyle=orthogonalEdgeStyle;rounded=0;orthogonalLoop=1;jettySize=auto;html=1;" edge="1" parent="1" source="HqyEcuFVQdqJihXE6mJL-2" target="HqyEcuFVQdqJihXE6mJL-3">
          <mxGeometry relative="1" as="geometry" />
        </mxCell>
        <mxCell id="HqyEcuFVQdqJihXE6mJL-2" value="Reanimación Neonatal" style="rounded=1;whiteSpace=wrap;html=1;fillColor=#1ba1e2;strokeColor=#006EAF;fontColor=#ffffff;strokeWidth=2;" vertex="1" parent="1">
          <mxGeometry x="80" y="120" width="120" height="60" as="geometry" />
        </mxCell>
        <mxCell id="HqyEcuFVQdqJihXE6mJL-6" value="" style="edgeStyle=orthogonalEdgeStyle;rounded=0;orthogonalLoop=1;jettySize=auto;html=1;" edge="1" parent="1" source="HqyEcuFVQdqJihXE6mJL-3" target="HqyEcuFVQdqJihXE6mJL-5">
          <mxGeometry relative="1" as="geometry" />
        </mxCell>
        <mxCell id="HqyEcuFVQdqJihXE6mJL-10" value="Si" style="edgeLabel;html=1;align=center;verticalAlign=middle;resizable=0;points=[];" vertex="1" connectable="0" parent="HqyEcuFVQdqJihXE6mJL-6">
          <mxGeometry x="-0.075" y="-2" relative="1" as="geometry">
            <mxPoint y="-1" as="offset" />
          </mxGeometry>
        </mxCell>
        <mxCell id="HqyEcuFVQdqJihXE6mJL-8" value="" style="edgeStyle=orthogonalEdgeStyle;rounded=0;orthogonalLoop=1;jettySize=auto;html=1;" edge="1" parent="1" source="HqyEcuFVQdqJihXE6mJL-3" target="HqyEcuFVQdqJihXE6mJL-7">
          <mxGeometry relative="1" as="geometry" />
        </mxCell>
        <mxCell id="HqyEcuFVQdqJihXE6mJL-9" value="No" style="edgeLabel;html=1;align=center;verticalAlign=middle;resizable=0;points=[];" vertex="1" connectable="0" parent="HqyEcuFVQdqJihXE6mJL-8">
          <mxGeometry x="-0.24" relative="1" as="geometry">
            <mxPoint as="offset" />
          </mxGeometry>
        </mxCell>
        <mxCell id="HqyEcuFVQdqJihXE6mJL-3" value="Gestacion a termino&lt;br&gt;Llora o respira&lt;br&gt;Buen tono" style="whiteSpace=wrap;html=1;rounded=1;fillColor=#e3c800;strokeColor=#B09500;fontColor=#000000;strokeWidth=2;" vertex="1" parent="1">
          <mxGeometry x="280" y="120" width="120" height="60" as="geometry" />
        </mxCell>
        <mxCell id="HqyEcuFVQdqJihXE6mJL-5" value="Piel a piel" style="whiteSpace=wrap;html=1;rounded=1;fillColor=#60a917;strokeColor=#2D7600;fontColor=#ffffff;strokeWidth=2;" vertex="1" parent="1">
          <mxGeometry x="480" y="133" width="120" height="35" as="geometry" />
        </mxCell>
        <mxCell id="HqyEcuFVQdqJihXE6mJL-12" value="" style="edgeStyle=orthogonalEdgeStyle;rounded=0;orthogonalLoop=1;jettySize=auto;html=1;" edge="1" parent="1" source="HqyEcuFVQdqJihXE6mJL-7" target="HqyEcuFVQdqJihXE6mJL-11">
          <mxGeometry relative="1" as="geometry" />
        </mxCell>
        <mxCell id="HqyEcuFVQdqJihXE6mJL-13" value="30s" style="edgeLabel;html=1;align=center;verticalAlign=middle;resizable=0;points=[];" vertex="1" connectable="0" parent="HqyEcuFVQdqJihXE6mJL-12">
          <mxGeometry x="-0.04" y="1" relative="1" as="geometry">
            <mxPoint as="offset" />
          </mxGeometry>
        </mxCell>
        <mxCell id="HqyEcuFVQdqJihXE6mJL-7" value="Secar + calor&lt;br&gt;Estimular&lt;br&gt;Limpiar secreciones" style="whiteSpace=wrap;html=1;rounded=1;fillColor=#e3c800;strokeColor=#B09500;fontColor=#000000;strokeWidth=2;" vertex="1" parent="1">
          <mxGeometry x="280" y="230" width="120" height="60" as="geometry" />
        </mxCell>
        <mxCell id="HqyEcuFVQdqJihXE6mJL-15" value="" style="edgeStyle=orthogonalEdgeStyle;rounded=0;orthogonalLoop=1;jettySize=auto;html=1;" edge="1" parent="1" source="HqyEcuFVQdqJihXE6mJL-11" target="HqyEcuFVQdqJihXE6mJL-14">
          <mxGeometry relative="1" as="geometry" />
        </mxCell>
        <mxCell id="HqyEcuFVQdqJihXE6mJL-17" value="" style="edgeStyle=orthogonalEdgeStyle;rounded=0;orthogonalLoop=1;jettySize=auto;html=1;" edge="1" parent="1" source="HqyEcuFVQdqJihXE6mJL-11" target="HqyEcuFVQdqJihXE6mJL-16">
          <mxGeometry relative="1" as="geometry" />
        </mxCell>
        <mxCell id="HqyEcuFVQdqJihXE6mJL-18" value="30s" style="edgeLabel;html=1;align=center;verticalAlign=middle;resizable=0;points=[];" vertex="1" connectable="0" parent="HqyEcuFVQdqJihXE6mJL-17">
          <mxGeometry x="-0.24" y="3" relative="1" as="geometry">
            <mxPoint x="-2" as="offset" />
          </mxGeometry>
        </mxCell>
        <mxCell id="HqyEcuFVQdqJihXE6mJL-11" value="FC &amp;lt;100" style="whiteSpace=wrap;html=1;rounded=1;fillColor=#e3c800;strokeColor=#B09500;fontColor=#000000;strokeWidth=2;" vertex="1" parent="1">
          <mxGeometry x="280" y="340" width="120" height="60" as="geometry" />
        </mxCell>
        <mxCell id="HqyEcuFVQdqJihXE6mJL-14" value="Ventilacion PPI" style="whiteSpace=wrap;html=1;rounded=1;fillColor=#60a917;strokeColor=#2D7600;fontColor=#ffffff;strokeWidth=2;" vertex="1" parent="1">
          <mxGeometry x="480" y="353" width="120" height="35" as="geometry" />
        </mxCell>
        <mxCell id="HqyEcuFVQdqJihXE6mJL-20" value="" style="edgeStyle=orthogonalEdgeStyle;rounded=0;orthogonalLoop=1;jettySize=auto;html=1;" edge="1" parent="1" source="HqyEcuFVQdqJihXE6mJL-16" target="HqyEcuFVQdqJihXE6mJL-19">
          <mxGeometry relative="1" as="geometry" />
        </mxCell>
        <mxCell id="HqyEcuFVQdqJihXE6mJL-22" value="" style="edgeStyle=orthogonalEdgeStyle;rounded=0;orthogonalLoop=1;jettySize=auto;html=1;" edge="1" parent="1" source="HqyEcuFVQdqJihXE6mJL-16" target="HqyEcuFVQdqJihXE6mJL-21">
          <mxGeometry relative="1" as="geometry" />
        </mxCell>
        <mxCell id="HqyEcuFVQdqJihXE6mJL-16" value="FC &amp;lt;60" style="whiteSpace=wrap;html=1;rounded=1;fillColor=#e3c800;strokeColor=#B09500;fontColor=#000000;strokeWidth=2;" vertex="1" parent="1">
          <mxGeometry x="280" y="450" width="120" height="60" as="geometry" />
        </mxCell>
        <mxCell id="HqyEcuFVQdqJihXE6mJL-19" value="RCP &lt;br&gt;3:1" style="whiteSpace=wrap;html=1;rounded=1;fillColor=#60a917;strokeColor=#2D7600;fontColor=#ffffff;strokeWidth=2;" vertex="1" parent="1">
          <mxGeometry x="480" y="463" width="120" height="35" as="geometry" />
        </mxCell>
        <mxCell id="HqyEcuFVQdqJihXE6mJL-24" value="" style="edgeStyle=orthogonalEdgeStyle;rounded=0;orthogonalLoop=1;jettySize=auto;html=1;" edge="1" parent="1" source="HqyEcuFVQdqJihXE6mJL-21" target="HqyEcuFVQdqJihXE6mJL-23">
          <mxGeometry relative="1" as="geometry" />
        </mxCell>
        <mxCell id="HqyEcuFVQdqJihXE6mJL-21" value="FC &amp;lt;60" style="whiteSpace=wrap;html=1;rounded=1;fillColor=#e3c800;strokeColor=#B09500;fontColor=#000000;strokeWidth=2;" vertex="1" parent="1">
          <mxGeometry x="280" y="560" width="120" height="60" as="geometry" />
        </mxCell>
        <mxCell id="HqyEcuFVQdqJihXE6mJL-23" value="Adrenalina" style="whiteSpace=wrap;html=1;rounded=1;fillColor=#60a917;strokeColor=#2D7600;fontColor=#ffffff;strokeWidth=2;" vertex="1" parent="1">
          <mxGeometry x="480" y="573" width="120" height="35" as="geometry" />
        </mxCell>
      </root>
    </mxGraphModel>
  </diagram>
</mxfile>
